<svg width="41" height="18" viewBox="0 0 41 18" fill="none" xmlns="http://www.w3.org/2000/svg">
<path fill-rule="evenodd" clip-rule="evenodd" d="M26.1817 8.402C28.1187 9.76979 31.5608 12.9395 28.6802 15.1706C26.8471 16.59 23.5554 16.8576 21.7244 15.2822C19.4297 13.3076 21.0859 10.3386 22.8001 8.65103C23.2934 8.16505 23.8287 7.71765 24.3912 7.29907C25.0081 7.63257 25.6081 7.99708 26.1817 8.402ZM40.1678 0.531034C34.8205 0.859649 29.1167 2.4669 24.5448 5.47197C23.4302 4.94242 22.3343 4.52511 21.3918 4.22419C15.9164 2.47651 9.21715 2.35326 3.70849 4.05416C3.10656 4.24024 3.09212 5.00274 3.46138 5.36571C3.23293 5.18824 3.0066 5.0079 2.78239 4.82468C3.28363 4.25934 3.85757 3.79066 4.53732 3.3976C4.95278 3.15756 5.46243 3.02223 5.85217 2.75459C6.08435 2.59524 6.02767 2.40262 6.3043 2.26342C6.39256 2.21903 6.40447 2.07367 6.28756 2.05503C5.96748 2.00423 5.8103 1.78005 5.48802 1.74267C4.98035 1.68357 4.15578 2.0175 3.71045 2.21355C2.60136 2.7018 1.66265 3.47335 0.884115 4.39255C0.559069 4.77658 0.657922 5.29898 0.994812 5.63149C1.82057 6.44677 2.76212 7.14493 3.73563 7.77298C4.5792 8.3169 5.50238 8.98939 6.51139 9.12706C7.30245 9.23542 7.74929 8.2868 7.16168 7.74517C6.44475 7.08409 5.45014 6.73875 4.63025 6.20701C4.27871 5.97908 3.94356 5.73332 3.61348 5.48118C3.73049 5.544 3.86981 5.57422 4.02967 5.55425C9.19439 4.90847 14.0855 4.15585 19.2535 5.37406C20.523 5.67278 21.7722 6.08195 22.9696 6.60663C22.8754 6.6802 22.7771 6.75031 22.6834 6.82544C19.6089 9.30183 16.9896 14.4874 21.5014 17.0827C24.7035 18.9252 31.5332 17.7385 31.4203 13.0918C31.3482 10.1229 28.798 7.81493 25.9894 6.22318C27.4332 5.3418 28.9772 4.59915 30.4582 3.90687C33.5453 2.46326 36.8549 1.45546 40.1842 0.747268C40.3162 0.719073 40.3116 0.522089 40.1678 0.531034Z" fill="black"/>
</svg>
