<svg width="42" height="36" viewBox="0 0 42 36" fill="none" xmlns="http://www.w3.org/2000/svg">
<path d="M15.1907 21.8336C14.727 22.2515 12.6664 23.6452 12.0218 23.3546" stroke="black"/>
<path d="M38.4853 22.3481L38.8675 22.6571C38.9549 22.549 38.9925 22.4089 38.9708 22.2716L38.4853 22.3481ZM38.4853 22.3481C38.8675 22.6571 38.8673 22.6573 38.8671 22.6576L38.8666 22.6582L38.8649 22.6604L38.8589 22.6677L38.8368 22.6944C38.8177 22.7175 38.7897 22.751 38.7531 22.7941C38.6798 22.8803 38.5718 23.0049 38.4308 23.1615C38.1489 23.4748 37.7347 23.9166 37.2014 24.4359C36.1355 25.4737 34.5891 26.8251 32.6673 28.0779C28.8303 30.5794 23.4386 32.7231 17.3782 31.0992C11.3179 29.4754 7.72035 24.923 5.64814 20.8382C4.61025 18.7923 3.94676 16.8487 3.54252 15.417C3.34024 14.7006 3.20246 14.1109 3.11498 13.6987C3.07123 13.4925 3.04004 13.3306 3.01964 13.2193C3.00943 13.1637 3.00193 13.1207 2.9969 13.0911L2.99118 13.057L2.98966 13.0476L2.98923 13.0449L2.98909 13.0441C2.98905 13.0438 2.98901 13.0435 3.47448 12.967M38.4853 22.3481C38.9708 22.2716 38.9708 22.2713 38.9707 22.271L38.9706 22.2702L38.9701 22.2675L38.9686 22.2581L38.9629 22.2239C38.9579 22.1944 38.9504 22.1514 38.9402 22.0957C38.9198 21.9845 38.8886 21.8226 38.8448 21.6164C38.7574 21.2042 38.6196 20.6144 38.4173 19.898C38.0131 18.4664 37.3496 16.5228 36.3117 14.4769C34.2395 10.3921 30.642 5.83971 24.5816 4.21584C18.5212 2.59197 13.1295 4.73573 9.29253 7.23715C7.37073 8.49001 5.82436 9.84143 4.75844 10.8792C4.22506 11.3985 3.81087 11.8403 3.52899 12.1536C3.38802 12.3102 3.28006 12.4348 3.20675 12.521C3.1701 12.5641 3.1421 12.5976 3.12296 12.6207L3.10093 12.6474L3.09494 12.6547L3.09321 12.6569L3.09266 12.6575C3.09248 12.6578 3.09233 12.6579 3.47448 12.967M3.47448 12.967L2.98901 13.0435C2.96735 12.9062 3.00489 12.7661 3.09233 12.6579L3.47448 12.967Z" fill="#D11414"/>
<path d="M38.4853 22.3481L38.8675 22.6571C38.9549 22.549 38.9925 22.4089 38.9708 22.2716L38.4853 22.3481ZM38.4853 22.3481C38.8675 22.6571 38.8673 22.6573 38.8671 22.6576L38.8666 22.6582L38.8649 22.6604L38.8589 22.6677L38.8368 22.6944C38.8177 22.7175 38.7897 22.751 38.7531 22.7941C38.6798 22.8803 38.5718 23.0049 38.4308 23.1615C38.1489 23.4748 37.7347 23.9166 37.2014 24.4359C36.1355 25.4737 34.5891 26.8251 32.6673 28.0779C28.8303 30.5794 23.4386 32.7231 17.3782 31.0992C11.3179 29.4754 7.72035 24.923 5.64814 20.8382C4.61025 18.7923 3.94676 16.8487 3.54252 15.417C3.34024 14.7006 3.20246 14.1109 3.11498 13.6987C3.07123 13.4925 3.04004 13.3306 3.01964 13.2193C3.00943 13.1637 3.00193 13.1207 2.9969 13.0911L2.99118 13.057L2.98966 13.0476L2.98923 13.0449L2.98909 13.0441C2.98905 13.0438 2.98901 13.0435 3.47448 12.967M38.4853 22.3481C38.9708 22.2716 38.9708 22.2713 38.9707 22.271L38.9706 22.2702L38.9701 22.2675L38.9686 22.2581L38.9629 22.2239C38.9579 22.1944 38.9504 22.1514 38.9402 22.0957C38.9198 21.9845 38.8886 21.8226 38.8448 21.6164C38.7574 21.2042 38.6196 20.6144 38.4173 19.898C38.0131 18.4664 37.3496 16.5228 36.3117 14.4769C34.2395 10.3921 30.642 5.83971 24.5816 4.21584C18.5212 2.59197 13.1295 4.73573 9.29253 7.23715C7.37073 8.49001 5.82436 9.84143 4.75844 10.8792C4.22506 11.3985 3.81087 11.8403 3.52899 12.1536C3.38802 12.3102 3.28006 12.4348 3.20675 12.521C3.1701 12.5641 3.1421 12.5976 3.12296 12.6207L3.10093 12.6474L3.09494 12.6547L3.09321 12.6569L3.09266 12.6575C3.09248 12.6578 3.09233 12.6579 3.47448 12.967M3.47448 12.967L2.98901 13.0435C2.96735 12.9062 3.00489 12.7661 3.09233 12.6579L3.47448 12.967Z" stroke="black" stroke-width="0.98294" stroke-linejoin="round"/>
<path d="M38.4853 22.3481L38.8675 22.6571C38.9549 22.549 38.9925 22.4089 38.9708 22.2716L38.4853 22.3481ZM38.4853 22.3481C38.8675 22.6571 38.8673 22.6573 38.8671 22.6576L38.8666 22.6582L38.8649 22.6604L38.8589 22.6677L38.8368 22.6944C38.8177 22.7175 38.7897 22.751 38.7531 22.7941C38.6798 22.8803 38.5718 23.0049 38.4308 23.1615C38.1489 23.4748 37.7347 23.9166 37.2014 24.4359C36.1355 25.4737 34.5891 26.8251 32.6673 28.0779C28.8303 30.5794 23.4386 32.7231 17.3782 31.0992C11.3179 29.4754 7.72035 24.923 5.64814 20.8382C4.61025 18.7923 3.94676 16.8487 3.54252 15.417C3.34024 14.7006 3.20246 14.1109 3.11498 13.6987C3.07123 13.4925 3.04004 13.3306 3.01964 13.2193C3.00943 13.1637 3.00193 13.1207 2.9969 13.0911L2.99118 13.057L2.98966 13.0476L2.98923 13.0449L2.98909 13.0441C2.98905 13.0438 2.98901 13.0435 3.47448 12.967M38.4853 22.3481C38.9708 22.2716 38.9708 22.2713 38.9707 22.271L38.9706 22.2702L38.9701 22.2675L38.9686 22.2581L38.9629 22.2239C38.9579 22.1944 38.9504 22.1514 38.9402 22.0957C38.9198 21.9845 38.8886 21.8226 38.8448 21.6164C38.7574 21.2042 38.6196 20.6144 38.4173 19.898C38.0131 18.4664 37.3496 16.5228 36.3117 14.4769C34.2395 10.3921 30.642 5.83971 24.5816 4.21584C18.5212 2.59197 13.1295 4.73573 9.29253 7.23715C7.37073 8.49001 5.82436 9.84143 4.75844 10.8792C4.22506 11.3985 3.81087 11.8403 3.52899 12.1536C3.38802 12.3102 3.28006 12.4348 3.20675 12.521C3.1701 12.5641 3.1421 12.5976 3.12296 12.6207L3.10093 12.6474L3.09494 12.6547L3.09321 12.6569L3.09266 12.6575C3.09248 12.6578 3.09233 12.6579 3.47448 12.967M3.47448 12.967L2.98901 13.0435C2.96735 12.9062 3.00489 12.7661 3.09233 12.6579L3.47448 12.967Z" stroke="black" stroke-width="0.98294" stroke-linejoin="round"/>
<path d="M22.4182 11.3972C22.0831 12.4497 20.9583 13.0314 19.9058 12.6963C18.8532 12.3612 18.2716 11.2364 18.6067 10.1838C18.9418 9.13131 20.0666 8.5497 21.1191 8.88477C22.1717 9.21984 22.7533 10.3447 22.4182 11.3972Z" fill="black"/>
<path d="M19.2177 10.9027C19.1782 10.2797 19.3659 7.79913 19.994 7.47436" stroke="black"/>
<path d="M19.994 7.47408C20.6221 7.14938 20.4965 7.21427 19.994 7.47408Z" stroke="black"/>
<path d="M25.5636 21.0461C25.2524 19.9863 25.8592 18.8748 26.919 18.5636C27.9788 18.2523 29.0903 18.8591 29.4015 19.9189C29.7128 20.9787 29.1059 22.0902 28.0461 22.4015C26.9863 22.7127 25.8749 22.1059 25.5636 21.0461Z" fill="black"/>
<path d="M28.4928 19.6651C28.8741 20.1593 30.1066 22.3201 29.7678 22.9408" stroke="black"/>
<path d="M29.7679 22.9409C29.4291 23.5615 29.4968 23.4374 29.7679 22.9409Z" stroke="black"/>
<path d="M13.8704 18.7084C14.9034 18.3173 16.0579 18.8376 16.4491 19.8706C16.8402 20.9036 16.3199 22.0581 15.2869 22.4492C14.2539 22.8404 13.0994 22.3201 12.7083 21.2871C12.3171 20.2541 12.8374 19.0996 13.8704 18.7084Z" fill="black"/>
<path d="M12.0217 23.3548C11.3771 23.0642 11.506 23.1223 12.0217 23.3548Z" stroke="black"/>
<ellipse cx="21.5" cy="18" rx="2.5" ry="3" fill="black"/>
</svg>
