<svg width="38" height="42" viewBox="0 0 38 42" fill="none" xmlns="http://www.w3.org/2000/svg">
<path d="M3.62823 40.5151C3.60979 40.8371 3.75089 41.1476 4.0056 41.3454C4.26031 41.5433 4.59603 41.6032 4.90347 41.5057L16.4924 37.8303C16.686 37.7689 16.8558 37.6488 16.9783 37.4866L35.7992 12.5691C36.0064 12.2947 36.0548 11.9317 35.9265 11.6126C34.6966 8.55186 32.3374 6.30593 29.8328 4.85731C27.3419 3.41664 24.6056 2.70589 22.5097 2.81573C22.2094 2.83147 21.9329 2.98414 21.7597 3.22991L4.5106 27.6969C4.40505 27.8466 4.34356 28.0229 4.33309 28.2058L3.62823 40.5151Z" fill="#B3B3B3"/>
<path d="M2.85215 26.1237C2.79938 26.1986 2.76863 26.2867 2.7634 26.3782L2.05854 38.6875C2.04932 38.8485 2.11987 39.0037 2.24722 39.1027C2.37458 39.2016 2.54244 39.2316 2.69616 39.1828L14.285 35.5074C14.3819 35.4766 14.4668 35.4166 14.528 35.3355L33.3489 10.418C33.4525 10.2808 33.4767 10.0993 33.4126 9.93974C32.2331 7.00462 29.9631 4.83429 27.5283 3.42602C25.1003 2.02173 22.4574 1.34581 20.4762 1.44964C20.3261 1.45751 20.1878 1.53384 20.1012 1.65673L2.85215 26.1237Z" fill="white" stroke="black" stroke-width="0.980446" stroke-linejoin="round"/>
<path d="M20.5034 1.93919L3.25433 26.4062C5.43736 26.6906 10.6704 28.8156 14.1383 35.0401L32.9592 10.1225C30.7011 4.50353 24.2362 1.74356 20.5034 1.93919Z" fill="#FAB1B1"/>
<path d="M13.4777 35.83C13.5575 35.976 13.706 36.0715 13.8719 36.0837C14.0379 36.0959 14.1987 36.023 14.299 35.8903L30.0521 15.0343C30.1603 14.891 30.1815 14.7001 30.1074 14.5365C29.45 13.0852 28.0361 10.9504 25.909 9.19512C23.7755 7.43454 20.9043 6.04053 17.3513 6.13042C17.1963 6.13434 17.0523 6.21132 16.963 6.33802L2.62313 26.6784C2.5247 26.8181 2.50605 26.9989 2.57392 27.1557C2.64178 27.3124 2.78637 27.4226 2.95554 27.4464C5.03968 27.7394 10.1915 29.8201 13.4777 35.83Z" fill="#E2BE3F" stroke="black" stroke-width="0.980446" stroke-linejoin="round"/>
<path d="M2.89957 32.5608L2.54714 38.7155L8.34158 36.8777C6.43809 34.2776 3.92045 32.9164 2.89957 32.5608Z" fill="black"/>
<path d="M12.8534 33.389L29.0023 11.9327" stroke="black" stroke-width="0.980446" stroke-linecap="round" stroke-linejoin="round"/>
<path d="M7.54982 28.7582L22.6833 6.73382" stroke="black" stroke-width="0.980446" stroke-linecap="round" stroke-linejoin="round"/>
</svg>
