<svg width="57" height="56" viewBox="0 0 57 56" fill="none" xmlns="http://www.w3.org/2000/svg">
<path d="M32.3109 48.6025C32.5171 49.0382 32.994 49.2771 33.4665 49.1813C33.939 49.0855 34.2852 48.6798 34.3055 48.1982C34.5224 43.0486 37.8354 31.1107 49.2774 24.9695C49.7148 24.7348 49.9276 24.2254 49.787 23.7493C49.6465 23.2732 49.1912 22.961 48.6965 23.0013C42.7898 23.4835 37.7272 21.1469 33.7556 17.9505C29.7754 14.747 26.9639 10.7342 25.6094 8.05028C25.3947 7.62481 24.92 7.39775 24.454 7.49766C23.988 7.59756 23.6481 7.99927 23.6266 8.47537C22.9784 22.8745 13.3681 29.9373 8.78366 31.6486C8.30369 31.8278 8.02357 32.3276 8.12132 32.8305C8.21907 33.3335 8.66604 33.692 9.17818 33.6783C14.4313 33.5381 26.4996 36.3256 32.3109 48.6025Z" fill="#B3B3B3"/>
<path d="M46.3367 23.2642C46.5554 23.1469 46.6617 22.8922 46.5915 22.6541C46.5212 22.4161 46.2936 22.2599 46.0462 22.2801C39.9668 22.7764 34.7753 20.3677 30.7341 17.1152C26.6886 13.8592 23.8324 9.78475 22.4486 7.04286C22.3413 6.83012 22.1039 6.7166 21.8709 6.76655C21.6379 6.8165 21.4679 7.01735 21.4572 7.2554C20.7977 21.9056 11.0137 29.1268 6.274 30.896C6.03402 30.9856 5.89396 31.2356 5.94283 31.487C5.99171 31.7385 6.21519 31.9177 6.47126 31.9109C11.8563 31.7672 24.1631 34.6102 30.0916 47.1347C30.1948 47.3526 30.4332 47.472 30.6694 47.4241C30.9057 47.3763 31.0788 47.1734 31.0889 46.9326C31.3107 41.6676 34.6782 29.5216 46.3367 23.2642Z" fill="#FC75FF" stroke="black" stroke-width="1.04814" stroke-linejoin="round"/>
<path d="M34.9873 25.5004C30.0578 29.1011 28.5602 34.8454 28.227 37.4809C26.2225 34.3095 21.3458 29.4028 17.3601 29.194C18.8874 28.539 22.4872 23.3986 23.8745 17.304C27.7647 23.0204 32.7918 25.0983 34.9873 25.5004Z" fill="white" stroke="black" stroke-width="1.04814" stroke-linecap="round" stroke-linejoin="round"/>
</svg>
