<svg width="13" height="13" viewBox="0 0 13 13" fill="none" xmlns="http://www.w3.org/2000/svg">
<path d="M11.6539 0.829346H3.65393C3.52132 0.829346 3.39415 0.882024 3.30038 0.975792C3.20661 1.06956 3.15393 1.19674 3.15393 1.32935V3.82935H0.653931C0.521322 3.82935 0.394146 3.88202 0.300377 3.97579C0.206609 4.06956 0.153931 4.19674 0.153931 4.32935V12.3293C0.153931 12.462 0.206609 12.5891 0.300377 12.6829C0.394146 12.7767 0.521322 12.8293 0.653931 12.8293H8.65393C8.78654 12.8293 8.91372 12.7767 9.00748 12.6829C9.10125 12.5891 9.15393 12.462 9.15393 12.3293V9.82935H11.6539C11.7865 9.82935 11.9137 9.77667 12.0075 9.6829C12.1013 9.58913 12.1539 9.46195 12.1539 9.32935V1.32935C12.1539 1.19674 12.1013 1.06956 12.0075 0.975792C11.9137 0.882024 11.7865 0.829346 11.6539 0.829346ZM8.15393 11.8293H1.15393V4.82935H8.15393V11.8293ZM11.1539 8.82935H9.15393V4.32935C9.15393 4.19674 9.10125 4.06956 9.00748 3.97579C8.91372 3.88202 8.78654 3.82935 8.65393 3.82935H4.15393V1.82935H11.1539V8.82935Z" fill="#C0C0C0"/>
</svg>
